<?xml version="1.0" encoding="utf-8"?>
<!-- Svg Vector Icons : http://www.onlinewebfonts.com/icon -->
<!DOCTYPE svg PUBLIC "-//W3C//DTD SVG 1.1//EN" "http://www.w3.org/Graphics/SVG/1.1/DTD/svg11.dtd">
<svg version="1.1" xmlns="http://www.w3.org/2000/svg" xmlns:xlink="http://www.w3.org/1999/xlink" x="0px" y="0px" viewBox="0 0 1000 1000" enable-background="new 0 0 1000 1000" xml:space="preserve">
<metadata> Svg Vector Icons : http://www.onlinewebfonts.com/icon </metadata>
<g><g><path d="M982.6,97.5c-4.6-3.2-10.6-3.9-15.8-2l-160.9,60.5c-9-1.2-18.1-1.8-27.4-1.8c-9.3,0-18.5,0.6-27.5,1.8L590.1,95.6c-5.3-2-11.2-1.3-15.8,2c-4.6,3.2-7.4,8.5-7.4,14.1V368H395.2c-74.8,0-141.1,37.5-181.3,94.7h-21.8c-34,0-61.6-27.7-61.6-61.6c0-0.6,0-1.1-0.1-1.7V106.3c0-33.2-27-60.2-60.2-60.2C37,46,10,73,10,106.3v300.2c0,2.3,0.2,4.6,0.5,7.2c6.1,88.9,76.1,159.7,163.2,168.6c-0.1,2.9-0.2,5.7-0.2,8.6v300.4c0,32.9,26.8,59.7,59.7,59.7h23.4c32.9,0,59.7-26.8,59.7-59.7V776.4c0-0.4,0-0.8,0-1.2c0-14.6,11.9-27.5,25.4-27.5h2.1c13.7,0,25.4,12.1,25.4,26.4v120.2c0,32.9,26.8,59.7,59.7,59.7h23.4c32.9,0,59.7-26.8,59.7-59.7V747.5h62.3v143.7c0,32.9,26.8,59.7,59.7,59.7h23.4c32.9,0,59.7-26.8,59.7-59.7V770c0-0.4,0-0.8,0-1.2c0-14.6,11.9-27.5,25.4-27.5H766c13.7,0,25.4,12.1,25.4,26.4v126.6c0,32.9,26.8,59.7,59.7,59.7h23.4c32.9,0,59.7-26.8,59.7-59.7v-385c0-0.1,0-0.3,0-0.4c34.5-37.6,55.7-87.7,55.8-142.7c0,0,0-0.1,0-0.1V111.7C990,106,987.2,100.8,982.6,97.5z M601.3,136.5l93.4,35.1c-38.3,16.6-70.8,44.2-93.4,78.8V136.5z M44.6,408.7l-0.2-302.4C44.4,92,56,80.4,70.2,80.4S96.1,92,96.1,106.3V401c0,0.6,0,1.3,0.1,1.9c1,52.1,43.7,94.1,96,94.1h1.9c-7.5,16.1-13.1,33.2-16.5,51.1C106,541.2,44.6,471.8,44.6,408.7z M477.7,894.2c0,14-11.4,25.4-25.4,25.4H429c-14,0-25.4-11.4-25.4-25.4V774.1c0-9.5-2.3-18.5-6.4-26.5h80.5V894.2z M874.5,919.6h-23.4c-14,0-25.4-11.4-25.4-25.4V767.7c0-33.5-26.8-60.8-59.7-60.8h-23.4c-31.9,0-58.9,27.5-59.7,60.4c0,0.5-0.1,1-0.1,1.5v122.5c0,14-11.4,25.4-25.4,25.4h-23.4c-14,0-25.4-11.4-25.4-25.4v-248c0-9.5-7.7-17.2-17.2-17.2s-17.2,7.7-17.2,17.2v69.9H341.8c-31.9,0-58.9,27.6-59.7,60.5c0,0.5-0.1,1-0.1,1.5v116.1c0,14-11.4,25.4-25.4,25.4h-23.4c-14,0-25.4-11.4-25.4-25.4V590.8c0-84.8,55.9-156.7,132.6-180.3V485c0,9.5,7.7,17.2,17.2,17.2c9.5,0,17.2-7.7,17.2-17.2v-81.5c6.7-0.7,13.5-1.1,20.4-1.1h23.9v123.1c0,9.5,7.7,17.2,17.2,17.2c9.5,0,17.2-7.7,17.2-17.2V402.3h44.3v164.3c0,9.5,7.7,17.2,17.2,17.2c9.5,0,17.2-7.7,17.2-17.2V402.3h37.9c17.3,99.3,104.2,175.1,208.4,175.1c45.2,0,87-14.2,121.4-38.4v355.3C899.9,908.2,888.5,919.6,874.5,919.6z M778.5,543c-97.7,0-177.2-79.5-177.2-177.2c0-97.7,79.5-177.2,177.2-177.2s177.2,79.5,177.2,177.2C955.6,463.5,876.2,543,778.5,543z M862.2,171.6l93.4-35.1v113.9C933,215.8,900.5,188.2,862.2,171.6z"/><path d="M819.2,386.4h-81.5c-9.5,0-17.2,7.7-17.2,17.2s7.7,17.2,17.2,17.2h23.6v77.8c0,9.5,7.7,17.2,17.2,17.2c9.5,0,17.2-7.7,17.2-17.2v-77.8h23.6c9.5,0,17.2-7.7,17.2-17.2S828.7,386.4,819.2,386.4z"/></g><g></g><g></g><g></g><g></g><g></g><g></g><g></g><g></g><g></g><g></g><g></g><g></g><g></g><g></g><g></g></g>
</svg>