<?xml version="1.0" encoding="utf-8"?>
<!-- Svg Vector Icons : http://www.onlinewebfonts.com/icon -->
<!DOCTYPE svg PUBLIC "-//W3C//DTD SVG 1.1//EN" "http://www.w3.org/Graphics/SVG/1.1/DTD/svg11.dtd">
<svg version="1.1" xmlns="http://www.w3.org/2000/svg" xmlns:xlink="http://www.w3.org/1999/xlink" x="0px" y="0px" viewBox="0 0 1000 1000" enable-background="new 0 0 1000 1000" xml:space="preserve">
<metadata> Svg Vector Icons : http://www.onlinewebfonts.com/icon </metadata>
<g><path d="M866.7,500C920.2,475.5,990,329.6,990,329.6s-75.6,11.3-158.8,49.1c-61.6,28-71.4,82.9-72.3,109.5h-85.2c4.3-40.2,28.2-58.7,29.5-59.7c5.2-3.8,6.3-11.2,2.5-16.4c-3.8-5.3-11.2-6.4-16.4-2.6c-1.5,1.1-34.5,25.8-39.2,78.7h-78.7c3.3-64.7,30.9-95,31.3-95.6c4.5-4.7,4.3-12.1-0.4-16.6c-4.7-4.5-12.1-4.4-16.6,0.3c-1.5,1.5-34.4,36.8-37.9,111.8h-78.5c2.7-86.6,31.8-127.3,32.3-128c3.9-5.2,2.8-12.5-2.3-16.4c-5.2-3.9-12.6-2.9-16.5,2.3c-1.5,1.9-34.3,46.6-37.1,142.1h-78.5c2.4-104.2,32.4-153.1,32.9-153.8c3.5-5.5,1.9-12.7-3.5-16.2c-5.5-3.5-12.7-2-16.3,3.5c-1.4,2.2-34.2,54.4-36.6,166.5h-68.1c-1.2-61.9-9.9-120.5-25.5-125.9C177.2,340.9-1.7,461,10.6,500.6C22.9,540.2,214.9,654,250.1,638.9c16.5-7.1,24.8-65.6,25.5-127.1h68c1.9,114.2,35.4,164.6,36.8,166.8c2.3,3.3,6,5.1,9.7,5.1c2.3,0,4.6-0.7,6.6-2c5.4-3.6,6.8-10.9,3.2-16.3c-0.3-0.5-30.9-47.5-32.8-153.6h78.5c2.3,97.3,35.9,140.5,37.3,142.4c2.3,2.9,5.7,4.4,9.2,4.4c2.6,0,5.1-0.8,7.3-2.5c5.1-4,6-11.4,2-16.5c-0.3-0.4-30-39.6-32.2-127.8h78.5c3,76.4,36.7,110.6,38.2,112c2.3,2.3,5.2,3.4,8.2,3.4c3,0,6-1.2,8.3-3.5c4.6-4.6,4.6-12,0-16.6c-0.3-0.3-28.4-29.6-31.2-95.3H650c4.2,53.8,38,77.8,39.6,78.8c2,1.4,4.3,2.1,6.6,2.1c3.7,0,7.3-1.8,9.6-5c3.7-5.3,2.4-12.6-2.8-16.4c-1.1-0.8-25.5-18.7-29.4-59.5h85.3c0.9,26.6,10.7,81.5,72.3,109.5c83.2,37.8,158.8,49.2,158.8,49.2S915.5,524.1,866.7,500"/></g>
</svg>