<?xml version="1.0" encoding="utf-8"?>
<!-- Svg Vector Icons : http://www.onlinewebfonts.com/icon -->
<!DOCTYPE svg PUBLIC "-//W3C//DTD SVG 1.1//EN" "http://www.w3.org/Graphics/SVG/1.1/DTD/svg11.dtd">
<svg version="1.1" xmlns="http://www.w3.org/2000/svg" xmlns:xlink="http://www.w3.org/1999/xlink" x="0px" y="0px" viewBox="0 0 1000 1000" enable-background="new 0 0 1000 1000" xml:space="preserve">
<metadata> Svg Vector Icons : http://www.onlinewebfonts.com/icon </metadata>
<g><path d="M968.2,170.7c-3.8-32.7-27.4-59.3-60.3-59.3h-59.3c-12.5,0-24.5,3.8-34.8,11.1c-0.3,0.2-0.6,0.5-0.9,0.7c-32.1-19.1-69.6-30.1-109.6-30.1c-40,0-77.4,11-109.6,30.1c-0.3-0.2-0.6-0.5-0.9-0.7c-10.2-7.2-22.3-11.1-34.8-11.1h-59.3c-32.9,0-57.1,26.7-60.3,59.3c-3.4,34.3-15.7,140.1-15.7,140.1H312.9c-48.4,0-93.2,15.4-130,41.6l-40.5-90.5c-15.3-34.9-56.2-50.8-91-35.4c-16.9,7.4-29.9,21-36.6,38.2c-6.7,17.2-6.3,36,1.2,53l76.7,171.8c-3.3,15.5-5.1,31.6-5.1,48.1v306.1c0,33.3,27.1,60.3,60.3,60.3h23.8c33.3,0,60.3-27.1,60.3-60.3V661.4c0-0.4,0-0.8,0-1.2c0-15.2,12.3-28.5,26.4-28.5h2.2c14.3,0,26.4,12.6,26.4,27.5v187.5c0,33.3,27.1,60.3,60.3,60.3h23.8c33.3,0,60.3-27.1,60.3-60.3V677.4L496,695v148.5c0,33.3,27.1,60.3,60.3,60.3h23.8c33.3,0,60.3-27.1,60.3-60.3V719.9c0-0.4,0-0.8,0-1.2c0-15.2,12.3-28.5,26.4-28.5h23.8c14.3,0,26.4,12.6,26.4,27.5v129c0,33.3,27.1,60.3,60.3,60.3h23.8c33.3,0,60.3-27.1,60.3-60.3V454.2c0-0.2,0-0.4,0-0.6c8-8.7,15.3-18,21.8-27.9h46.2c33.3,0,62.2-27.1,60.3-60.3C987.2,316.5,973.8,219.3,968.2,170.7z M884.5,308.1c0,27.4-6.1,53.3-17,76.6c-3.6-11.8-8.7-22.1-15.5-31.2c-15.5-20.9-38.9-34.8-71.1-42.2c0.1-1.3,0.1-2.5,0.1-3.8c0-45.4-39.8-45.4-54.7-45.4c-3.5,0-7.2,0.1-11,0.2c-7.7,0.2-16.1,0.2-23.7,0c-3.8-0.1-7.5-0.2-11-0.2c-15,0-54.7,0-54.7,45.4c0,1.4,0,2.9,0.1,4.3c-31.9,7.7-54.9,21.7-70.2,42.6c-6.9,9.4-12,20.2-15.5,32.5c-11.5-23.8-18-50.5-18-78.7c0-99.9,81.2-181.1,181.1-181.1C803.3,127,884.5,208.3,884.5,308.1z M686.4,383.2V434c0,9.4,7.6,17,17,17s17-7.6,17-17v-50.8c22.2-5,40.9-19.5,51.4-39.1c57.2,12.8,67.2,47,67.9,83.2c-33.2,37.9-82,62-136.3,62c-53.4,0-101.5-23.2-134.6-60.1c0.4-36.4,9.5-71.3,66.5-84.6C645.8,363.8,664.4,378.2,686.4,383.2z M703.4,351.1c-24.1,0-43.6-19.6-43.6-43.6c0-9.5,0-11.5,20.8-11.5c3.3,0,6.7,0.1,10.3,0.1c8.1,0.2,17,0.2,25.1,0c3.6-0.1,7-0.1,10.3-0.1c20.8,0,20.8,2,20.8,11.5C747,331.5,727.5,351.1,703.4,351.1z M472.6,171.7c1.6-14.5,11.8-26.4,26.4-26.4h59.3c1.5,0,3,0.1,4.4,0.4c-45.5,39.5-74.2,97.6-74.2,162.4c0,29.6,6,57.9,16.9,83.6h-28c-14.3,0-26.9-11.4-26.4-25.5C452.9,317.3,467.3,219.7,472.6,171.7z M333,344.8c-1.4,70.5-17.4,138.7-46.7,138.7c-41.7,0-103-35-106.8-84.1c34.5-33.8,81.6-54.6,133.4-54.6H333z M47,303.8c-3.8-8.6-4-18.1-0.6-26.9c3.4-8.7,10-15.6,18.6-19.4c17.7-7.8,38.5,0.3,46.3,18.1l44.5,99.4c-19.5,19.1-35.6,41.7-47.2,66.7L47,303.8z M397.5,846.6c0,14.5-11.8,26.4-26.4,26.4h-23.8c-14.5,0-26.4-11.8-26.4-26.4V659.1c0-4.2-0.4-8.3-1.2-12.2l77.8,21.2L397.5,846.6L397.5,846.6z M801.3,873h-23.8c-14.5,0-26.4-11.8-26.4-26.4v-129c0-33.9-27.1-61.4-60.3-61.4h-23.8c-32.2,0-59.5,27.8-60.3,61c0,0.5-0.1,1-0.1,1.5v124.8c0,14.5-11.8,26.4-26.4,26.4h-23.8c-14.5,0-26.4-11.8-26.4-26.4V590.8c0-9.4-7.6-17-17-17c-9.4,0-17,7.6-17,17v69l-217.5-59.3c-5.7-1.8-11.7-2.8-17.9-2.8h-2.2c-32.2,0-59.5,27.8-60.3,61.1c0,0.5-0.1,1-0.1,1.4v183.3c0,14.5-11.8,26.4-26.4,26.4h-23.8c-14.5,0-26.4-11.8-26.4-26.4V537.4c0-38.9,11.5-75.1,31.3-105.4c21.6,53.1,86.4,85.4,133.6,85.4c69.8,0,79.7-121.4,80.7-172.7h52.2l-2.1,18.7c-0.1,0.6-0.1,1.3-0.1,1.9c0,33.3,27.1,60.3,60.3,60.3h46.2c38.4,58.7,104.8,97.5,180,97.5c46.3,0,89.2-14.7,124.3-39.6v363C827.7,861.1,815.9,873,801.3,873z M955.9,366.2c0.6,14.2-12.1,25.5-26.4,25.5h-28c10.9-25.7,16.9-54,16.9-83.6c0-64.8-28.8-122.9-74.2-162.4c1.5-0.3,2.9-0.4,4.4-0.4h59.3c14.5,0,24.3,11.6,26.4,26.4C937.8,196.4,954,317.3,955.9,366.2z"/><g></g><g></g><g></g><g></g><g></g><g></g><g></g><g></g><g></g><g></g><g></g><g></g><g></g><g></g><g></g></g>
</svg>