<?xml version="1.0" encoding="utf-8"?>
<!-- Svg Vector Icons : http://www.onlinewebfonts.com/icon -->
<!DOCTYPE svg PUBLIC "-//W3C//DTD SVG 1.1//EN" "http://www.w3.org/Graphics/SVG/1.1/DTD/svg11.dtd">
<svg version="1.1" xmlns="http://www.w3.org/2000/svg" xmlns:xlink="http://www.w3.org/1999/xlink" x="0px" y="0px" viewBox="0 0 1000 1000" enable-background="new 0 0 1000 1000" xml:space="preserve">
<metadata> Svg Vector Icons : http://www.onlinewebfonts.com/icon </metadata>
<g><g><path d="M496.8,793.1c-60.3,0-109.3,45.6-109.3,101.7c0,26.6,15.7,42.5,42,42.5c12.1,0,25.3-3.1,38.1-6c10.6-2.5,21.6-5,29.2-5c6.6,0,17,2.4,27.1,4.8c13.2,3.1,26.8,6.3,39.4,6.3c26.8,0,42.8-15.9,42.8-42.5C606.1,838.7,557.1,793.1,496.8,793.1z M570.2,901.3c0,0-1.5,1.1-6.8,1.1c-8.6,0-20.2-2.7-31.5-5.3c-12.5-2.9-24.4-5.7-35-5.7c-11.6,0-24.5,3-37,5.9c-10.9,2.5-22.2,5.1-30.3,5.1c-4.6,0-6-0.8-6-0.8c-0.1-0.1-1.1-1.8-1.1-6.8c0-36.8,33.4-66.8,74.4-66.8c41,0,74.4,30,74.4,66.8C571.2,899.1,570.4,901,570.2,901.3z"/><path d="M442.4,759.7c0-30.7-21.3-55.8-47.5-55.8c-26.2,0-47.5,25-47.5,55.8c0,30.7,21.3,55.8,47.5,55.8C421.1,815.5,442.4,790.5,442.4,759.7z M382.3,759.7c0-11.9,6.7-20.8,12.6-20.8c6,0,12.6,8.9,12.6,20.8c0,11.9-6.7,20.8-12.6,20.8C389,780.5,382.3,771.6,382.3,759.7z"/><path d="M500,781c26.2,0,47.5-25,47.5-55.8c0-30.7-21.3-55.8-47.5-55.8c-26.2,0-47.5,25-47.5,55.8C452.5,756,473.8,781,500,781z M500,704.4c6,0,12.6,8.9,12.6,20.8c0,11.9-6.7,20.8-12.6,20.8c-6,0-12.6-8.9-12.6-20.8C487.4,713.3,494,704.4,500,704.4z"/><path d="M605.1,704c-26.2,0-47.5,25-47.5,55.8c0,30.7,21.3,55.8,47.5,55.8s47.5-25,47.5-55.8C652.6,729,631.3,704,605.1,704z M605.1,780.5c-6,0-12.6-8.9-12.6-20.8c0-11.9,6.7-20.8,12.6-20.8s12.6,8.9,12.6,20.8C617.7,771.6,611,780.5,605.1,780.5z"/><path d="M804,477.4c4.7-15.1,0.4-31.3-3.5-45.7c-2.7-10-5.4-20.3-4.1-26.3c1.3-5.6,8.3-13.7,14.5-20.9c11.2-13,23.9-27.6,23.9-46.8c0-19.1-12.7-33.8-23.9-46.8c-6.2-7.2-13.3-15.4-14.5-20.9c-1.4-6.1,1.4-16.4,4.1-26.3c4.4-16.3,9.3-34.7,1.3-51.4c-8.2-17-25.8-24.6-41.4-31.4c-8.9-3.8-18.9-8.2-22.6-12.8c-3.8-4.7-5.7-15.1-7.6-25.1c-3.1-16.6-6.7-35.5-21.3-47.2c-14.6-11.6-33.7-10.9-50.6-10.3c-10.2,0.4-20.8,0.8-26.3-1.9c-5.3-2.5-11.7-11.3-17.4-19.1C604.5,30.8,593,15.2,574.5,11c-17.9-4.1-34.7,4.8-49.4,12.6c-9.2,4.9-18.7,9.9-25.1,9.9s-15.9-5-25.1-9.9C460.1,15.8,443.4,7,425.5,11c-18.5,4.2-30,19.8-40.1,33.5c-5.7,7.7-12.1,16.5-17.4,19.1c-5.5,2.7-16.1,2.3-26.3,1.9c-16.9-0.6-36-1.4-50.6,10.3c-14.6,11.7-18.2,30.5-21.3,47.2c-1.9,10-3.8,20.4-7.6,25.1c-3.7,4.6-13.8,9-22.6,12.8c-15.6,6.8-33.2,14.4-41.4,31.4c-8.1,16.7-3.1,35.1,1.3,51.4c2.7,10,5.4,20.3,4.1,26.3c-1.3,5.6-8.3,13.7-14.5,20.9c-11.2,13-23.9,27.6-23.9,46.8c0,19.1,12.7,33.8,23.9,46.8c6.2,7.2,13.3,15.4,14.5,20.9c1.4,6.1-1.4,16.4-4.1,26.3c-3.9,14.4-8.2,30.6-3.5,45.7c-28.4,16.4-45.2,36.4-45.2,59.9v337.2C150.8,950.3,326.5,990,500,990c173.5,0,349.2-39.7,349.2-115.5V537.3C849.2,513.8,832.4,493.8,804,477.4z M237.5,397.6c-3.2-14.1-12.8-25.2-22.2-36c-7.2-8.3-15.4-17.8-15.4-23.9c0-6.1,8.2-15.6,15.4-23.9c9.3-10.8,19-22,22.2-36c3.3-14.5-0.8-29.7-4.4-43.1c-2.6-9.9-5.9-22.1-3.5-27.1c2.5-5.3,13.9-10.2,23.9-14.5c13.2-5.7,26.9-11.7,36.1-23.1c9.2-11.5,12.1-26.9,14.6-40.4c2-10.7,4.3-22.7,8.8-26.3c4.4-3.5,17.2-3.1,27.5-2.7c13.8,0.5,29.5,1.1,42.8-5.3c13.1-6.3,21.9-18.3,30.4-29.8c6.5-8.8,13.8-18.8,19.6-20.2c5.3-1.2,16.4,4.7,25.4,9.4c12.4,6.5,26.4,14,41.4,14c15.1,0,29.1-7.4,41.4-14c8.9-4.7,20.1-10.7,25.3-9.4c5.8,1.3,13.2,11.3,19.6,20.2c8.5,11.6,17.3,23.5,30.4,29.8c13.3,6.4,29,5.8,42.8,5.3c10.3-0.4,23-0.9,27.5,2.7c4.5,3.6,6.8,15.7,8.8,26.3c2.5,13.6,5.4,28.9,14.6,40.4c9.1,11.4,22.8,17.4,36.1,23.1c10,4.3,21.3,9.2,23.9,14.5c2.4,5-0.9,17.3-3.5,27.1c-3.6,13.4-7.7,28.6-4.4,43.1c3.2,14.1,12.8,25.2,22.2,36c7.2,8.3,15.4,17.8,15.4,23.9c0,6.1-8.2,15.6-15.4,23.9c-9.3,10.8-19,22-22.2,36c-3.3,14.5,0.8,29.7,4.4,43.1c1.9,7,4.1,15.1,4.3,21.1c-67.4-26.5-169.6-40.1-271.2-40.1c-101.5,0-203.8,13.6-271.2,40.1c0.3-6,2.5-14.1,4.3-21.1C236.8,427.3,240.8,412.1,237.5,397.6z M270.4,484.7c61.1-18.1,142.7-28,229.6-28c87,0,168.5,9.9,229.6,28c62.5,18.5,84.7,39.9,84.7,52.6c0,12.7-22.2,34.1-84.7,52.6c-61.1,18.1-142.7,28-229.6,28c-87,0-168.5-9.9-229.6-28c-62.5-18.5-84.7-39.9-84.7-52.6C185.7,524.6,207.9,503.2,270.4,484.7z M729.6,927.1c-61.1,18.1-142.7,28-229.6,28c-87,0-168.5-9.9-229.6-28c-62.5-18.5-84.7-39.9-84.7-52.6V590.7c59.8,40.9,187.6,62.1,314.3,62.1c126.7,0,254.5-21.2,314.3-62.1v283.7C814.3,887.2,792.1,908.6,729.6,927.1z"/></g><g></g><g></g><g></g><g></g><g></g><g></g><g></g><g></g><g></g><g></g><g></g><g></g><g></g><g></g><g></g></g>
</svg>